ffmpeg version 3.4.8-0ubuntu0.2 Copyright (c) 2000-2020 the FFmpeg developers
  built with gcc 7 (Ubuntu 7.5.0-3ubuntu1~18.04)
  configuration: --prefix=/usr --extra-version=0ubuntu0.2 --toolchain=hardened --libdir=/usr/lib/x86_64-linux-gnu --incdir=/usr/include/x86_64-linux-gnu --enable-gpl --disable-stripping --enable-avresample --enable-avisynth --enable-gnutls --enable-ladspa --enable-libass --enable-libbluray --enable-libbs2b --enable-libcaca --enable-libcdio --enable-libflite --enable-libfontconfig --enable-libfreetype --enable-libfribidi --enable-libgme --enable-libgsm --enable-libmp3lame --enable-libmysofa --enable-libopenjpeg --enable-libopenmpt --enable-libopus --enable-libpulse --enable-librubberband --enable-librsvg --enable-libshine --enable-libsnappy --enable-libsoxr --enable-libspeex --enable-libssh --enable-libtheora --enable-libtwolame --enable-libvorbis --enable-libvpx --enable-libwavpack --enable-libwebp --enable-libx265 --enable-libxml2 --enable-libxvid --enable-libzmq --enable-libzvbi --enable-omx --enable-openal --enable-opengl --enable-sdl2 --enable-libdc1394 --enable-libdrm --enable-libiec61883 --enable-chromaprint --enable-frei0r --enable-libopencv --enable-libx264 --enable-shared
  libavutil      55. 78.100 / 55. 78.100
  libavcodec     57.107.100 / 57.107.100
  libavformat    57. 83.100 / 57. 83.100
  libavdevice    57. 10.100 / 57. 10.100
  libavfilter     6.107.100 /  6.107.100
  libavresample   3.  7.  0 /  3.  7.  0
  libswscale      4.  8.100 /  4.  8.100
  libswresample   2.  9.100 /  2.  9.100
  libpostproc    54.  7.100 / 54.  7.100
[rawvideo @ 0x557705a09a20] Estimating duration from bitrate, this may be inaccurate
Input #0, rawvideo, from '../../SVC-Encoder-20220109T061506Z-001/SVC-Encoder/Dataset/RollerCoaster/6f_2x2/tile_yuv/f2_t1_480x480.yuv':
  Duration: 00:00:10.00, start: 0.000000, bitrate: 82944 kb/s
    Stream #0:0: Video: rawvideo (I420 / 0x30323449), yuv420p, 480x480, 82944 kb/s, 30 tbr, 30 tbn, 30 tbc
Stream mapping:
  Stream #0:0 -> #0:0 (rawvideo (native) -> h264 (libx264))
Press [q] to stop, [?] for help
[libx264 @ 0x557705a16c60] using cpu capabilities: MMX2 SSE2Fast LZCNT SSSE3 SSE4.2 AVX
[libx264 @ 0x557705a16c60] profile High, level 3.0
Output #0, rawvideo, to 'RollerCoaster_f2_t1_480x480_x264_QP_28.h264':
  Metadata:
    encoder         : Lavf57.83.100
    Stream #0:0: Video: h264 (libx264), yuv420p, 480x480, q=-1--1, 30 fps, 30 tbn, 30 tbc
    Metadata:
      encoder         : Lavc57.107.100 libx264
    Side data:
      cpb: bitrate max/min/avg: 0/0/0 buffer size: 0 vbv_delay: -1
frame=  300 fps=0.0 q=34.0 LPSNR=Y:inf U:inf V:inf *:inf size=      12kB time=00:00:09.93 bitrate=  10.2kbits/s speed=28.6x    
video:12kB audio:0kB subtitle:0kB other streams:0kB global headers:0kB muxing overhead: 0.000000%
[libx264 @ 0x557705a16c60] frame I:2     Avg QP:26.02  size:  1004  PSNR Mean Y:53.06 U:55.46 V:55.19 Avg:53.69 Global:53.62
[libx264 @ 0x557705a16c60] frame P:76    Avg QP:29.35  size:    82  PSNR Mean Y:51.95 U:54.87 V:54.08 Avg:52.61 Global:52.48
[libx264 @ 0x557705a16c60] frame B:222   Avg QP:33.67  size:    20  PSNR Mean Y:52.02 U:54.85 V:54.09 Avg:52.67 Global:52.61
[libx264 @ 0x557705a16c60] consecutive B-frames:  1.0%  0.7%  1.0% 97.3%
[libx264 @ 0x557705a16c60] mb I  I16..4: 67.8% 32.2%  0.0%
[libx264 @ 0x557705a16c60] mb P  I16..4:  0.9%  0.6%  0.0%  P16..4:  1.2%  0.3%  0.0%  0.0%  0.0%    skip:96.8%
[libx264 @ 0x557705a16c60] mb B  I16..4:  0.0%  0.0%  0.0%  B16..8:  0.1%  0.0%  0.0%  direct: 0.0%  skip:99.8%  L0:51.2% L1:48.1% BI: 0.7%
[libx264 @ 0x557705a16c60] 8x8 transform intra:34.6% inter:61.4%
[libx264 @ 0x557705a16c60] coded y,uvDC,uvAC intra: 1.8% 5.6% 0.0% inter: 0.0% 0.0% 0.0%
[libx264 @ 0x557705a16c60] i16 v,h,dc,p: 62% 15% 15%  8%
[libx264 @ 0x557705a16c60] i8 v,h,dc,ddl,ddr,vr,hd,vl,hu: 34%  0% 64%  0%  0%  0%  0%  0%  0%
[libx264 @ 0x557705a16c60] i4 v,h,dc,ddl,ddr,vr,hd,vl,hu: 24% 14% 38%  5%  3%  2%  3%  7%  5%
[libx264 @ 0x557705a16c60] i8c dc,h,v,p: 90%  3%  7%  0%
[libx264 @ 0x557705a16c60] Weighted P-Frames: Y:0.0% UV:0.0%
[libx264 @ 0x557705a16c60] ref P L0: 70.3%  9.3% 17.1%  3.3%
[libx264 @ 0x557705a16c60] ref B L0: 86.1% 12.7%  1.3%
[libx264 @ 0x557705a16c60] ref B L1: 95.3%  4.7%
[libx264 @ 0x557705a16c60] PSNR Mean Y:52.010 U:54.863 V:54.097 Avg:52.664 Global:52.586 kb/s:10.16
